# xmcd
#
# Track frame offsets: 
#        150
#        13597
#        28792
#        43225
#        59621
#        76554
#        90752
#        108074
#        124146
#        139880
#        153924
#        170252
#        182697
#        196608
#        213294
#        225716
#        238970
#        255815
#        271601
#        290038
#
# Disc length: 4065 seconds
#
# Revision: 0
# Processed by: cddbd v1.5.2PL0 Copyright (c) Steve Scherf et al.
# Submitted via: ExactAudioCopyFreeDBPlugin 1.0
#
DISCID=fd0fdf14
DTITLE=WOIFE and KJ - 's LEBN
DYEAR=2018
DGENRE=Blues
TTITLE0=Bei uns in Bayern
TTITLE1=Endlich
TTITLE2=Montagsblues
TTITLE3=Auf geht`s
TTITLE4=Bella Marie
TTITLE5=Nimm mi 
TTITLE6=Koa Midlife-Krise
TTITLE7=i mogs ned
TTITLE8=Bitte bleib bei mir
TTITLE9=Musik im Leben
TTITLE10=`s Lebn
TTITLE11=Mädels Blues
TTITLE12=Ned nur
TTITLE13=Oisse bleibt beim Oidn
TTITLE14=Frog mi moi
TTITLE15=Losst`s ma nu a bissal Zeit
TTITLE16=So wos gscheads
TTITLE17=Vui Blabla
TTITLE18=Furt bist
TTITLE19=Bonustrack: „Männerliebe“
EXTD=
EXTT0=
EXTT1=
EXTT2=
EXTT3=
EXTT4=
EXTT5=
EXTT6=
EXTT7=
EXTT8=
EXTT9=
EXTT10=
EXTT11=
EXTT12=
EXTT13=
EXTT14=
EXTT15=
EXTT16=
EXTT17=
EXTT18=
EXTT19=
PLAYORDER=
